<?xml version="1.0" encoding="UTF-8" standalone="no"?>
<svg
   xmlns:dc="http://purl.org/dc/elements/1.1/"
   xmlns:cc="http://creativecommons.org/ns#"
   xmlns:rdf="http://www.w3.org/1999/02/22-rdf-syntax-ns#"
   xmlns:svg="http://www.w3.org/2000/svg"
   xmlns="http://www.w3.org/2000/svg"
   xmlns:sodipodi="http://sodipodi.sourceforge.net/DTD/sodipodi-0.dtd"
   xmlns:inkscape="http://www.inkscape.org/namespaces/inkscape"
   id="svg8"
   version="1.1"
   viewBox="0 0 37.099426 21.882994"
   height="21.882994mm"
   width="37.099426mm"
   sodipodi:docname="throw_rope.svg"
   inkscape:version="1.0.1 (3bc2e813f5, 2020-09-07)">
  <defs
     id="defs2" />
  <sodipodi:namedview
     id="base"
     pagecolor="#ffffff"
     bordercolor="#666666"
     borderopacity="1.0"
     inkscape:pageopacity="0.0"
     inkscape:pageshadow="2"
     inkscape:zoom="3.8641975"
     inkscape:cx="106.50685"
     inkscape:cy="57.208263"
     inkscape:document-units="mm"
     inkscape:current-layer="layer1"
     inkscape:document-rotation="0"
     showgrid="false"
     inkscape:window-width="1600"
     inkscape:window-height="838"
     inkscape:window-x="-6"
     inkscape:window-y="-6"
     inkscape:window-maximized="1"
     fit-margin-top="0"
     fit-margin-left="0"
     fit-margin-right="0"
     fit-margin-bottom="0"
     showguides="false"
     inkscape:snap-global="false" />
  <metadata
     id="metadata5">
    <rdf:RDF>
      <cc:Work
         rdf:about="">
        <dc:format>image/svg+xml</dc:format>
        <dc:type
           rdf:resource="http://purl.org/dc/dcmitype/StillImage" />
        <dc:title />
      </cc:Work>
    </rdf:RDF>
  </metadata>
  <g
     inkscape:label="Calque 1"
     inkscape:groupmode="layer"
     id="layer1"
     transform="translate(0.0133345,-0.0558311)">
    <rect
       style="fill:none;stroke:none;stroke-width:0.133745;stroke-linecap:round;stroke-linejoin:round;stroke-miterlimit:4;stroke-dasharray:none;paint-order:fill markers stroke;stop-color:#000000"
       id="rect1093"
       width="12.321894"
       height="21.749249"
       x="12.375432"
       y="0.1227036"
       inkscape:export-filename="C:\Godot\LD48-deeper-and-deeper\Assets\Animations\ThrowRope\03.png"
       inkscape:export-xdpi="1313"
       inkscape:export-ydpi="1313" />
    <rect
       style="fill:none;stroke:none;stroke-width:0.133745;stroke-linecap:round;stroke-linejoin:round;stroke-miterlimit:4;stroke-dasharray:none;paint-order:fill markers stroke;stop-color:#000000"
       id="rect1095"
       width="12.321894"
       height="21.749249"
       x="24.697325"
       y="0.1227036"
       inkscape:export-filename="C:\Godot\LD48-deeper-and-deeper\Assets\Animations\ThrowRope\04.png"
       inkscape:export-xdpi="1313"
       inkscape:export-ydpi="1313" />
    <rect
       style="fill:none;stroke:none;stroke-width:0.133745;stroke-linecap:round;stroke-linejoin:round;stroke-miterlimit:4;stroke-dasharray:none;paint-order:fill markers stroke;stop-color:#000000"
       id="rect1091"
       width="12.321894"
       height="21.749249"
       x="0.053538002"
       y="0.1227036"
       inkscape:export-filename="C:\Godot\LD48-deeper-and-deeper\Assets\Animations\ThrowRope\02.png"
       inkscape:export-xdpi="1313"
       inkscape:export-ydpi="1313" />
    <path
       d="m 2.2517063,5.5901925 c 0,0 4.9253828,-3.9982037 6.5320755,-3.1545994 C 10.213322,3.1861826 2.3154788,5.5560361 3.42352,7.92301 3.9901932,9.1335252 9.2976782,3.0879217 10.104278,3.8294515 11.317599,4.9448907 3.0922608,8.8345729 4.2696248,9.727691 5.055969,10.324192 10.76453,7.5317524 10.76453,7.5317524"
       style="fill:none;stroke:#606f7b;stroke-width:0.264583px;stroke-linecap:butt;stroke-linejoin:miter;stroke-opacity:1"
       id="path833"
       sodipodi:nodetypes="cssssc"
       inkscape:export-filename="C:\Godot\LD48-deeper-and-deeper\Assets\Animations\ThrowRope\02.png"
       inkscape:export-xdpi="1313.5643"
       inkscape:export-ydpi="1313.5643" />
    <path
       d="m 14.886087,4.6218741 c 0,0 5.141742,-4.23769968 6.406882,-2.3475521 1.488975,2.2245621 -6.939516,3.7079932 -5.428732,5.9178021 1.243881,1.8194119 5.072072,-4.3118847 6.162339,-2.3964691 0.942138,1.6551778 -4.648782,1.6226675 -4.49948,3.5213371 0.131578,1.6732779 4.401666,2.4453789 4.401666,2.4453789"
       style="fill:none;stroke:#606f7b;stroke-width:0.264583px;stroke-linecap:butt;stroke-linejoin:miter;stroke-opacity:1"
       id="path1087"
       sodipodi:nodetypes="cssssc"
       inkscape:export-filename="C:\Godot\LD48-deeper-and-deeper\Assets\Animations\ThrowRope\03.png"
       inkscape:export-xdpi="1313"
       inkscape:export-ydpi="1313" />
    <path
       d="m 27.662206,1.5785879 c 2.103023,0.635799 5.830442,-1.30201569 6.309068,0.8422468 0.430027,1.926538 -5.063016,3.2464379 -5.079499,5.2203179 -0.01878,2.24925 5.8068,-1.4391199 5.617475,0.8022272 -0.162508,1.9238732 -4.6053,2.1045032 -4.841832,4.0206842 -0.274207,2.221396 3.381493,0.334279 4.897622,1.980832"
       style="fill:none;stroke:#606f7b;stroke-width:0.264583px;stroke-linecap:butt;stroke-linejoin:miter;stroke-opacity:1"
       id="path1089"
       sodipodi:nodetypes="cssssc"
       inkscape:export-filename="C:\Godot\LD48-deeper-and-deeper\Assets\Animations\ThrowRope\04.png"
       inkscape:export-xdpi="1313"
       inkscape:export-ydpi="1313" />
    <path
       d="m 0.08101684,27.141343 c 0,0 7.34529176,-1.481125 7.88487676,0.251496 0.48009,1.541585 -6.97442236,-2.446062 -7.81571466,-0.771375 -0.5999913,1.194351 7.35470866,-0.985016 7.40072066,0.109678 0.06921,1.646682 -7.60170586,-1.086815 -7.40071366,0.377237 0.1342395,0.977819 7.33154466,0.275944 7.33154466,0.275944"
       style="fill:none;stroke:#000000;stroke-width:0.264583px;stroke-linecap:butt;stroke-linejoin:miter;stroke-opacity:1"
       id="path833-1"
       sodipodi:nodetypes="cssssc"
       inkscape:export-filename="C:\Godot\LD48-deeper-and-deeper\Assets\Animations\ThrowRope\rest.png"
       inkscape:export-xdpi="936.8598"
       inkscape:export-ydpi="936.8598" />
    <path
       id="rect1121"
       style="fill:#a5a5a5;fill-opacity:1;stroke:none;stroke-width:0.270107;stroke-linecap:round;stroke-linejoin:round;stroke-miterlimit:4;stroke-dasharray:none;paint-order:fill markers stroke;stop-color:#000000"
       d="m 12.920147,25.74453 c 0.262255,-0.143346 0.502254,-0.116062 0.730347,0.0025 v 0.305395 c 1.343191,0.18673 2.628351,0.11232 3.880408,-0.111057 0.0047,0.01093 0.06186,-0.02659 0,0.03527 -1.249457,0.266464 -2.555605,0.661719 -3.87279,0.65727 v 0.430076 h -0.737971 z"
       sodipodi:nodetypes="ccccccccc"
       inkscape:export-filename="C:\Godot\LD48-deeper-and-deeper\Assets\Animations\ThrowRope\support.png"
       inkscape:export-xdpi="936.8598"
       inkscape:export-ydpi="936.8598" />
    <rect
       style="fill:none;stroke:none;stroke-width:0.133745;stroke-linecap:round;stroke-linejoin:round;stroke-miterlimit:4;stroke-dasharray:none;paint-order:fill markers stroke;stop-color:#000000"
       id="rect852"
       width="12.321894"
       height="21.749249"
       x="39.692352"
       y="0.1227036"
       inkscape:export-filename="C:\Godot\LD48-deeper-and-deeper\Assets\Animations\ThrowRope\05.png"
       inkscape:export-xdpi="1313"
       inkscape:export-ydpi="1313" />
    <path
       d="m 42.657234,1.5785879 c 2.103023,0.635799 5.830442,-0.2368655 6.309068,1.907397 0.430027,1.926538 -4.385193,1.987624 -4.401676,3.961504 -0.01878,2.24925 5.128977,2.355951 4.939652,4.5972981 -0.162508,1.923873 -4.6053,1.262803 -4.841832,3.178984 -0.274207,2.221396 3.032259,3.293107 4.548388,4.93966"
       style="fill:none;stroke:#606f7b;stroke-width:0.264583px;stroke-linecap:butt;stroke-linejoin:miter;stroke-opacity:1"
       id="path854"
       sodipodi:nodetypes="cssssc"
       inkscape:export-filename="C:\Godot\LD48-deeper-and-deeper\Assets\Animations\ThrowRope\05.png"
       inkscape:export-xdpi="1313"
       inkscape:export-ydpi="1313" />
    <rect
       style="fill:none;stroke:none;stroke-width:0.133745;stroke-linecap:round;stroke-linejoin:round;stroke-miterlimit:4;stroke-dasharray:none;paint-order:fill markers stroke;stop-color:#000000"
       id="rect858"
       width="12.321894"
       height="21.749249"
       x="-13.914433"
       y="0.1227036"
       inkscape:export-filename="C:\Godot\LD48-deeper-and-deeper\Assets\Animations\ThrowRope\01.png"
       inkscape:export-xdpi="1313"
       inkscape:export-ydpi="1313" />
    <path
       d="m -11.522601,7.04267 c 0,0 4.4578371,-5.9299743 6.0645298,-5.08637 1.4295406,0.7505895 -6.1944208,3.5997361 -5.0863798,5.96671 0.566673,1.2105152 4.5732195,-5.8279098 5.3798198,-5.08638 1.213321,1.1154392 -5.6768438,5.0735919 -4.49948,5.96671 0.7863442,0.5965005 5.67326,-4.69511 5.67326,-4.69511"
       style="fill:none;stroke:#606f7b;stroke-width:0.264583px;stroke-linecap:butt;stroke-linejoin:miter;stroke-opacity:1"
       id="path860"
       sodipodi:nodetypes="cssssc"
       inkscape:export-filename="C:\Godot\LD48-deeper-and-deeper\Assets\Animations\ThrowRope\01.png"
       inkscape:export-xdpi="1313.5643"
       inkscape:export-ydpi="1313.5643" />
    <rect
       style="fill:none;stroke:none;stroke-width:0.133745;stroke-linecap:round;stroke-linejoin:round;stroke-miterlimit:4;stroke-dasharray:none;paint-order:fill markers stroke;stop-color:#000000"
       id="rect862"
       width="12.321894"
       height="21.749249"
       x="54.410789"
       y="0.1227036"
       inkscape:export-filename="C:\Godot\LD48-deeper-and-deeper\Assets\Animations\ThrowRope\06.png"
       inkscape:export-xdpi="1313"
       inkscape:export-ydpi="1313" />
    <path
       d="m 59.31231,0.17452629 c 0.698961,2.03986061 0.117363,2.37759401 0.595989,4.52185651 0.430027,1.926538 -0.608751,2.0844559 -0.625234,4.0583359 -0.01878,2.2492503 1.110456,2.8885263 0.921131,5.1298733 -0.162508,1.923873 -0.586779,2.521617 -0.823311,4.437798 -0.274207,2.221396 -0.560841,2.808948 0.955288,4.455501"
       style="fill:none;stroke:#606f7b;stroke-width:0.264583px;stroke-linecap:butt;stroke-linejoin:miter;stroke-opacity:1"
       id="path864"
       sodipodi:nodetypes="cssssc"
       inkscape:export-filename="C:\Godot\LD48-deeper-and-deeper\Assets\Animations\ThrowRope\06.png"
       inkscape:export-xdpi="1313"
       inkscape:export-ydpi="1313" />
    <rect
       style="fill:#c9c9c9;fill-opacity:1;stroke:none;stroke-width:0.131838;stroke-linecap:round;stroke-linejoin:round;stroke-opacity:1;paint-order:fill markers stroke;stop-color:#000000"
       id="rect866"
       width="0.2342414"
       height="1.3143338"
       x="12.920147"
       y="25.74453"
       inkscape:export-filename="C:\Godot\LD48-deeper-and-deeper\Assets\Animations\ThrowRope\support.png"
       inkscape:export-xdpi="936"
       inkscape:export-ydpi="936" />
    <rect
       style="fill:#d7d7d7;fill-opacity:1;stroke:none;stroke-width:0.0750481;stroke-linecap:round;stroke-linejoin:round;stroke-opacity:1;paint-order:fill markers stroke;stop-color:#000000"
       id="rect868"
       width="0.07590349"
       height="1.3143338"
       x="12.920147"
       y="25.74453"
       inkscape:export-filename="C:\Godot\LD48-deeper-and-deeper\Assets\Animations\ThrowRope\support.png"
       inkscape:export-xdpi="936"
       inkscape:export-ydpi="936" />
    <path
       id="path870"
       style="fill:#b9b9b9;fill-opacity:1;stroke:none;stroke-width:0.270107;stroke-linecap:round;stroke-linejoin:round;stroke-miterlimit:4;stroke-dasharray:none;paint-order:fill markers stroke;stop-color:#000000"
       d="m 13.650494,26.052425 c 1.343191,0.18673 2.628351,0.11232 3.880408,-0.111057 0.0047,0.01093 0.06507,-0.02231 0,0.02136 -1.249457,0.266464 -2.555605,0.324612 -3.87279,0.320163 z"
       sodipodi:nodetypes="ccccc"
       inkscape:export-filename="C:\Godot\LD48-deeper-and-deeper\Assets\Animations\ThrowRope\support.png"
       inkscape:export-xdpi="936.8598"
       inkscape:export-ydpi="936.8598" />
  </g>
</svg>
